<svg height="56" width="87" xmlns="http://www.w3.org/2000/svg"><path d="M86 52.636C86 53.941 84.84 55 83.407 55H3.593C2.161 55 1 53.941 1 52.636V3.365C1 2.059 2.161 1 3.593 1h79.814C84.84 1 86 2.059 86 3.365v49.271z" fill="#F1F2F2"/><g clip-rule="evenodd" fill-rule="evenodd"><path d="M53.568 24.681c-.259-1.199-.813-2.101-1.591-2.783-.268-.283-.592-.483-.96-.695a3.407 3.407 0 0 0-.563-.265c-.403-.153-.933-.332-1.591-.265.33-.167.821-.174 1.325-.166.419.045.767.161 1.126.265.301.163.599.329.895.497.726-2.17.448-5.141-.364-7.055-.785-2.008-1.927-3.661-3.411-4.968-1.46-1.334-3.214-2.374-5.533-2.849-1.147-.248-2.59-.208-3.644.033a8.142 8.142 0 0 0-2.815 1.358c-.743.659-1.464 1.34-1.954 2.252-.177.177-.252.455-.398.663-.102.251-.216.49-.331.728-.171.524-.367 1.024-.464 1.624-.265 1.084-.313 2.574-.132 3.743.136 1.255.504 2.278.895 3.279.241.466.46.953.728 1.391.254.442.568.823.862 1.226.667.724 1.384 1.397 2.219 1.955 1.692 1.102 3.634 1.953 6.294 2.086.053-.108-.071-.324-.099-.463-.04-.159-.056-.342-.101-.497a4.93 4.93 0 0 1 0-1.126c.106.027.103.162.167.231.057.065.078.166.166.199.066.187.211.296.298.464.25.258.444.571.762.761.253.256.59.426.895.63.328.169.609.384.994.496.658.347 1.54.469 2.418.597.885.12 1.738.271 2.55.464.748.257 1.51.499 2.12.894.322.186.64.377.927.597.141.113.318.189.431.331.175.069.251.235.431.298.515.49 1.022.987 1.459 1.557.18.328.425.59.563.961.121.133.156.352.265.496.007.188.189.414.033.563-.246.036-.196-.224-.298-.331-.08-.13-.18-.241-.233-.396-.387-.407-.734-.855-1.158-1.226-.42-.364-.833-.736-1.325-1.027-.925-.654-1.997-1.159-3.246-1.491-1.229-.355-2.608-.498-4.206-.396-.702.092-1.372.219-1.955.43-.627.156-1.326.241-2.021.331-2.711.167-5.729-.479-7.751-1.456-1.078-.5-2.071-1.087-2.914-1.822-.461-.333-.838-.752-1.226-1.159-.354-.43-.728-.841-.994-1.358-.354-.441-.564-1.026-.862-1.523-.193-.59-.468-1.1-.596-1.755-.203-.592-.327-1.263-.397-1.987-.012-.199-.101-.583-.1-.895 0-.028.036-.052.033-.099-.015-.283-.082-.718 0-.96-.015-.657.103-1.464.232-2.087.119-.665.295-1.271.497-1.854.197-.597.458-1.131.695-1.689.159-.238.28-.514.43-.761.127-.26.317-.456.432-.729.127-.071.15-.247.264-.331.051-.147.189-.209.232-.364.109-.09.195-.203.265-.332.101-.098.206-.191.265-.332.395-.389.748-.82 1.159-1.192.41-.385.869-.721 1.292-1.093.269-.128.463-.332.729-.463.202-.185.496-.278.696-.464.55-.249 1.021-.574 1.621-.769.517-.267 1.137-.431 1.723-.629 1.271-.327 2.555-.551 4.139-.497.058.007.086-.057.1 0 3.002.09 5.19.995 7.056 2.219 1.849 1.231 3.28 2.88 4.306 4.936 1.003 2.036 1.567 4.802 1.094 7.717a15.529 15.529 0 0 1-1.094 3.544c-.271.502-.512 1.034-.828 1.491a4.345 4.345 0 0 1-.464.696 1.448 1.448 0 0 1-.23.331c-.039.061-.088.112-.133.166-.016.029-.029.059-.066.066.007.059-.033.068-.035.033z" fill="#F68E1F"/><path d="M52.773 25.542c-.389-.153-.454-.628-.63-.994-.031-.134-.059-.336 0-.464.026-.006.033-.033.066-.033.098-.063.19.017.331.066.19.218.312.505.397.828.008.262.028.535-.164.597zm-2.915-.563c.007-.038.034-.019.034 0 .587.074.856.467.894 1.093-.053.346-.246.549-.563.629-.791.013-1.241-.715-.96-1.458.157-.128.269-.303.595-.264z" fill="#F68E1F"/><path d="M33.959 47.038c.094.403.3.695.53.962.229.268.5.492.828.662.306.19.639.354 1.026.463.188.067.368.142.596.165.158.087.355.134.365.365-.008.278-.195.379-.431.431-.237-.05-.531-.043-.729-.133-.502-.06-.905-.221-1.325-.364a6.062 6.062 0 0 1-2.054-1.325c-.116-.193-.273-.344-.397-.53-.123-.186-.206-.412-.332-.595-.984-.131-1.657-.574-2.252-1.094-.547-.623-.978-1.363-1.16-2.352-.209-.95-.145-2.132.1-3.048.542-1.775 1.686-2.953 3.842-3.113.595.019 1.114.091 1.59.266.478.173.934.492 1.292.827.029.027.042.03.066.066.075.112.261.262.364.397.02.026.012.07.033.1.041.055.099.081.133.133.022.033.014.068.034.099l.099.166c.015.026.056.047.065.066.057.108.082.242.133.364.053.126.124.239.166.364.126.38.21.824.265 1.291.129 1.334-.135 2.525-.629 3.412-.233.463-.553.84-.928 1.159-.348.348-.827.565-1.29.796zm-1.59-8.347c-.289.021-.462.156-.696.232-.154.143-.347.249-.464.431-.191.106-.243.353-.397.496a5.82 5.82 0 0 0-.332 1.094 7.58 7.58 0 0 0-.132 1.325c-.008 1.14.235 2.273.695 2.948.267.328.593.599.994.794.23.022.413.095.662.1.138-.05.374-.003.464-.1.203.016.253-.122.43-.133.093-.095.2-.175.332-.231.119-.135.235-.272.364-.397.067-.099.103-.229.199-.299.576-1.102.642-3.123.265-4.405a3.829 3.829 0 0 0-.563-1.159 3.216 3.216 0 0 0-.861-.63c-.265-.055-.514-.126-.861-.098-.02.001-.039.004-.034.032h-.065zm6.989-.927c.52.021 1.125-.043 1.589.034.104.163.063.35.066.529.037 2.431 0 5.035 0 7.519 0 .2.005.401 0 .597-.005.165.037.345-.066.497-.233.058-.562.033-.861.033-.312 0-.621.042-.828-.067a243.348 243.348 0 0 1 0-9.042.168.168 0 0 1 .1-.1zm3.975 0h1.557c.14.191.184.479.232.763.467 1.784.932 3.572 1.357 5.398.101.013.069-.108.1-.166.046-.042.021-.156.066-.198.019-.147.107-.224.1-.397.118-.224.153-.532.264-.762.137-.537.312-1.037.465-1.557.146-.539.345-1.025.464-1.591.219-.453.271-1.074.53-1.49h.661c.239.446.324 1.047.531 1.524.132.54.322 1.024.463 1.557.328 1.03.664 2.052.961 3.113.132-.199.133-.529.231-.762.058-.264.108-.533.198-.762.257-1.048.497-2.108.796-3.113.112-.528.22-1.062.396-1.523a5.609 5.609 0 0 1 1.358 0c.034.389-.149.811-.264 1.158-.062.426-.22.752-.299 1.159-.236.747-.419 1.547-.663 2.286-.187.795-.437 1.528-.629 2.319-.127.368-.221.771-.331 1.158-.129.357-.173.8-.365 1.094h-.927c-.236-.416-.32-.982-.53-1.424-.461-1.462-.977-2.867-1.424-4.34-.157.163-.153.486-.265.695a7.4 7.4 0 0 1-.232.729c-.125.505-.32.938-.431 1.457-.184.457-.321.959-.463 1.459-.195.434-.265.993-.497 1.391-.246.074-.627.013-.927.033-.234-.264-.256-.739-.399-1.094-.111-.372-.188-.782-.33-1.126-.177-.807-.447-1.52-.63-2.318-.24-.741-.444-1.521-.663-2.286-.119-.366-.213-.759-.331-1.125-.055-.399-.324-.757-.232-1.193a.254.254 0 0 1 .102-.066zm13.084 0c.519.021 1.124-.043 1.59.034.114.349.066.718.066 1.092v6.956c0 .377.048.744-.066 1.094a9 9 0 0 1-1.325.033c-.126-.006-.28.03-.364-.067-.114-.344-.066-.714-.066-1.093v-6.889c0-.418-.039-.818.066-1.094a.23.23 0 0 1 .099-.066zm-9.308 13.017c.204.105.419.199.563.364.119.188.179.543.099.829-.294.611-1.317.661-2.086.462v-3.013c.227-.116.586-.098.927-.1.224.029.442.064.63.132a.77.77 0 0 1 .331.895c-.119.181-.226.371-.464.431zm0-.464c.084-.633-.431-.741-.961-.662v1.061c.492.039.818-.089.961-.399zm.165 1.557c.169-.68-.438-1.007-1.093-.861-.077.332-.011.807-.033 1.192.489.038.936.007 1.126-.331zm-7.618-2.517c.072.358.014.846.033 1.259.02.061.139-.058.132-.133.058-.042.131-.069.133-.166a.852.852 0 0 0 .266-.331c.223-.174.334-.461.563-.629.122.011.293-.028.364.033-.113.284-.334.461-.497.695-.154.233-.362.411-.497.663.171.313.417.553.596.86.21.276.451.521.597.861-.12.069-.359.018-.53.033-.202-.24-.367-.517-.563-.762-.165-.278-.389-.495-.53-.795-.078.441-.011 1.027-.034 1.523-.099.066-.313.019-.463.033a29.723 29.723 0 0 1 0-3.146c.143.002.287.002.43.002zm4.505.895c.049-.021-.003-.041 0 0-.575.729-1.086 1.52-1.657 2.252h-.397a30.012 30.012 0 0 1 0-3.146h.364v2.385c.029.089.08-.069.1-.1.046-.054.093-.104.131-.165.07-.119.164-.213.232-.332.156-.219.332-.419.464-.662.196-.18.296-.455.497-.63.046-.141.139-.236.232-.33.009-.191.226-.174.431-.166-.021 1.038.044 2.164-.033 3.146h-.331c-.076-.686-.011-1.511-.033-2.252zm4.968-.861v2.186c.031.09.081-.069.101-.099.067-.01.066-.089.099-.133.092-.074.124-.208.231-.265.101-.232.274-.388.399-.597.285-.365.541-.76.827-1.126h.397c.055.972.055 2.175 0 3.146h-.331c-.077-.729-.013-1.601-.034-2.385-.028-.063-.019.036-.065.032-.016.03-.029.06-.066.067-.004.084-.061.116-.1.165a4.281 4.281 0 0 1-.232.332c-.146.228-.327.422-.462.662-.16.216-.341.41-.465.662-.23.146-.201.55-.662.464a30.012 30.012 0 0 1 0-3.146c.121.012.293-.027.363.035z" fill="#0269B3"/></g></svg>