<svg height="56" width="87" xmlns="http://www.w3.org/2000/svg"><path d="M86 52.636C86 53.941 84.84 55 83.407 55H3.593C2.161 55 1 53.941 1 52.636V3.365C1 2.059 2.161 1 3.593 1h79.814C84.84 1 86 2.059 86 3.365v49.271z" fill="#F1F2F2"/><g clip-rule="evenodd" fill="#1A5EAB" fill-rule="evenodd"><path d="M13.945 17.555c1.64 0 3.193.381 4.577 1.06.217.103.434.216.651.341l-.961.861-1.445-1.494-2.438 2.175-1.448-1.581-4.542 4.095 2.912 3.208-1.145 1.007 2.868 3.214-1.137 1.004 4.098 4.562 2.433-2.24 2.104 2.4a11.18 11.18 0 0 1-1.376.915 10.369 10.369 0 0 1-5.15 1.363C8.192 38.445 3.5 33.753 3.5 28s4.692-10.445 10.445-10.445z"/><path d="M12.042 27.34l2.483-2.237 2.237 2.484-2.484 2.237-2.236-2.484zm1.767 4.292l2.483-2.236 2.237 2.484-2.484 2.236-2.236-2.484zm-3.545-8.534l2.484-2.236 2.236 2.484-2.484 2.236-2.236-2.484zm4.558-1.203l1.863-1.678 1.677 1.864-1.862 1.677-1.678-1.863zm3.311 7.682l1.863-1.677 1.677 1.864-1.863 1.676-1.677-1.863zm1.638 3.763l1.863-1.678 1.677 1.863-1.863 1.677-1.677-1.862zm.751-8.624l1.242-1.119 1.118 1.242-1.242 1.119-1.118-1.242zm-1.587-3.69l1.242-1.118 1.118 1.242-1.242 1.118-1.118-1.242zm3.174 7.38l1.242-1.118 1.118 1.241-1.241 1.119-1.119-1.242zm-5.569-2.765l1.862-1.678 1.678 1.863-1.863 1.677-1.677-1.862zm36.624-1.653l-.059.039-.059-.039c-.428-.39-.896-.545-1.479-.545-1.344 0-2.22.935-2.22 2.395v6.834h1.344v-6.834c0-.974.662-1.051.876-1.051.156 0 .39.039.584.195.195.194.292.467.292.856v6.834h1.344v-6.834c0-.974.662-1.051.876-1.051.156 0 .39.039.584.195.195.194.292.467.292.856v6.834h1.344v-6.834c0-.759-.233-1.382-.662-1.811-.39-.37-.935-.584-1.558-.584-.603-.001-1.09.175-1.499.545zm9.794 2.609c-.447-.467-1.188-.876-2.2-.876-.974 0-1.714.409-2.161.876-.701.76-.838 1.831-.838 2.667 0 .818.137 1.89.838 2.648.447.468 1.188.876 2.161.876 1.013 0 1.753-.408 2.2-.876.701-.759.837-1.83.837-2.648 0-.837-.136-1.908-.837-2.667zm-.525 2.96c0 .643 0 1.363-.487 1.889-.195.194-.564.448-1.188.448-.584 0-.954-.254-1.149-.448-.486-.525-.486-1.246-.486-1.889v-.604c0-.643 0-1.363.486-1.869.195-.214.565-.468 1.149-.468.623 0 .992.253 1.188.468.487.506.487 1.227.487 1.869v.604zm2.471-3.72l1.13.02v.604c.331-.233.623-.409.955-.525.408-.175.7-.214 1.109-.214.584 0 1.188.117 1.674.662.468.545.565 1.188.565 1.733v4.537H69.09V28.02c0-1.109-.7-1.402-1.284-1.402-.585 0-1.188.253-1.675.701v5.335h-1.228v-6.817zm11.528 5.491a5.258 5.258 0 0 1-.798.312c-.37.117-.662.176-1.052.176-.643 0-1.227-.214-1.538-.565-.233-.232-.486-.7-.486-1.518v-.176h4.205v-.312c0-1.09-.039-1.986-.72-2.707-.448-.486-1.13-.817-1.986-.817-.954 0-1.655.409-2.083.896-.701.799-.779 1.85-.779 2.531 0 .759.117 1.89.817 2.668.448.525 1.246.973 2.376.973.506 0 1.052-.058 1.597-.272.292-.116.623-.272.837-.39l-.39-.799zm-3.874-2.822c0-.78.253-1.228.448-1.442a1.32 1.32 0 0 1 1.031-.448c.351 0 .7.078.954.331.448.429.448.954.448 1.422v.292h-2.882v-.155zM83.5 25.857l-2.667 8.022c-.098.351-.351.935-.644 1.266-.35.39-.817.565-1.343.565-.37 0-.721-.078-1.071-.273-.214-.136-.429-.272-.564-.428l.584-.74c.098.098.233.195.351.272.194.117.429.176.643.176.37 0 .604-.195.721-.351.136-.176.272-.584.37-.838l.155-.545-2.862-7.126h1.344l1.713 4.264c.176.408.351 1.032.39 1.207h.059c.214-.817.312-1.09.487-1.596l1.226-3.875H83.5zm-52.397 6.406l.039-.059.059.059c.447.37.896.546 1.499.546 1.343 0 2.22-.955 2.22-2.396v-6.834h-1.363v6.834c0 .974-.662 1.032-.857 1.032-.175 0-.409-.02-.584-.195-.194-.175-.292-.467-.292-.837v-6.834h-1.363v6.834c0 .974-.662 1.032-.876 1.032-.156 0-.39-.02-.565-.195-.195-.175-.292-.467-.292-.837v-6.834h-1.363v6.834c0 .74.233 1.363.662 1.791.389.39.954.604 1.558.604s1.09-.195 1.518-.545zm10.067-.935c-.214.098-.467.214-.779.312-.37.117-.662.176-1.051.176-.643 0-1.227-.214-1.539-.565-.214-.232-.467-.7-.467-1.518v-.176H41.5v-.312c0-1.09-.039-1.986-.701-2.707-.448-.467-1.129-.798-2.006-.798-.915 0-1.616.409-2.044.876-.72.818-.779 1.869-.779 2.531 0 .759.098 1.89.798 2.668.468.506 1.246.973 2.375.973.506 0 1.032-.077 1.597-.292.292-.097.604-.272.818-.389l-.388-.779zm-3.836-2.822c0-.78.233-1.208.448-1.442a1.308 1.308 0 0 1 1.012-.448c.351 0 .701.098.955.351.448.409.448.935.448 1.421v.273h-2.862v-.155zm9.949-2.084c-.486-.429-1.168-.682-1.869-.682-.312 0-.643.058-.876.097-.194.059-.448.156-.662.234v-2.667h-1.227v8.665c.721.428 1.577.72 2.551.72.72 0 1.694-.155 2.395-1.07.565-.76.683-1.714.683-2.492-.001-.742-.059-2.007-.995-2.805zm-2.102.194c.487 0 .993.156 1.305.487.429.467.429 1.168.429 1.771v.584c0 1.148-.195 1.616-.37 1.869-.195.254-.604.565-1.305.565-.253 0-.565-.078-.799-.137a3.823 3.823 0 0 1-.564-.272v-4.459"/></g></svg>