<svg version="1" xmlns="http://www.w3.org/2000/svg" width="100" height="100" viewBox="0 0 400 300"><path fill="url(#a)" d="M0 0h523v410.637H0z"/><path fill="url(#a)" d="M166.981 184.616c-.2-.33-.17.16.05.1-.02-.04-.04-.07-.05-.1zm-.31-.66c-.01-.02-.03-.06-.04-.09-.21.06.17.5.07.17-.01-.03-.02-.05-.03-.08z"/><path fill="none" d="M164.383 126.373c-.143.266-.28.532-.409.798.13-.266.266-.532.403-.798"/><path fill="#00AEEF" d="M196.079 217.27c.038.235.038.25 0 0zm-.068-.545c.03.227.061.416.068.545a3.425 3.425 0 0 1-.023-.151 4.988 4.988 0 0 1-.045-.394z"/><path fill="#00AEEF" d="M196.079 217.27c.038.235.038.25 0 0z"/><path d="M134.914 232.86v-24.531h4.765c3.098 0 5.278.176 6.54.528a8.432 8.432 0 0 1 3.318 1.768c1.257 1.083 2.21 2.475 2.858 4.172.648 1.698.972 3.637.972 5.815 0 2.178-.324 4.108-.972 5.789-.648 1.681-1.601 3.069-2.858 4.164a8.51 8.51 0 0 1-3.244 1.768c-1.213.352-3.1.528-5.663.528h-5.716zm3.533-3.603h2.97c1.633 0 2.857-.123 3.674-.369a5.185 5.185 0 0 0 2.13-1.24c.822-.793 1.438-1.779 1.848-2.957.411-1.178.616-2.549.616-4.114 0-1.564-.205-2.934-.616-4.114-.41-1.178-1.026-2.164-1.848-2.957a5.249 5.249 0 0 0-2.204-1.239c-.856-.245-2.194-.369-4.015-.369h-2.554v17.359zm22.013 3.603v-24.531h12.128v3.385h-8.595v6.15h8.595v3.502h-8.595v7.925h8.595v3.569H160.46zm33.578 0l-2.464-6.317h-8.611l-2.523 6.317h-3.711l10.525-25.503 10.51 25.503h-3.726zm-9.769-9.635h6.057l-2.227-5.597a24.887 24.887 0 0 1-.401-1.231 31.477 31.477 0 0 1-.416-1.55 23.858 23.858 0 0 1-.786 2.781l-2.227 5.597zm18.583 9.635v-24.531h3.533v20.962h7.897v3.569h-11.43zm17.337 0v-24.531h12.128v3.385h-8.595v6.115h8.595v3.502h-8.595v11.529h-3.533zm19.059 0v-24.531h3.533v24.531h-3.533zm11.65 0v-25.503l13.807 14.998a32.463 32.463 0 0 1 2.36 2.982V208.33h3.267v25.486l-14.088-15.265a19.808 19.808 0 0 1-2.093-2.748v17.058h-3.253z" fill="#fff"/></svg>