<svg version="1" xmlns="http://www.w3.org/2000/svg" width="400" height="300"><path fill="url(#a)" d="M0 0h523v410.637H0z"/><path fill="#fff" d="M267.251 110.166c0-7.07-2.53-13.87-6.84-19.98-.89-.96-1.8-1.92-2.74-2.85-13.85-13.64-32.17-21.15-51.59-21.15-11.62 0-22.62 2.7-32.4 7.54-3.4-.69-6.92-1.05-10.52-1.05-19.04 0-35.78 10.04-45.19 25.11 2.17-.53 4.44-.81 6.77-.81 6.64 0 12.76 2.26 17.63 6.04a73.134 73.134 0 0 0-4.07 8.17c0 .04-.01.07-.03.1-.12.3-.25.59-.37.88a73.289 73.289 0 0 0-5.34 27.53c0 3.63.27 7.29.8 10.86.05.39.12.77.18 1.15.06.35.11.71.19 1.06.22 1.23.46 2.46.76 3.68 2.59 8.04 6.7 15.12 11.61 20.77 2.7 3.11 5.64 5.79 8.69 7.95.44.33.87.62 1.32.9 3.9 2.58 7.97 4.32 11.96 5.1l3.21.57a48.56 48.56 0 0 1-4.25-7.02c-.22.06-.25-.43-.05-.1-.1-.18-.19-.38-.28-.58.1.33-.28-.11-.07-.17a48.1 48.1 0 0 1-4.06-13.2v-.01c-.39-2.48-.59-5.02-.59-7.61 0-25.97 20.28-47.28 45.83-48.92.01.02.02.03.02.05.31-.02.62-.03.94-.05.35-.02.7-.03 1.05-.04 3.38-.08 6.7.18 9.91.75 2.15.4 4.27.94 6.32 1.61.3.09.61.19.9.3.45.16.9.32 1.35.49.38.14.78.3 1.16.46v.01h.01c3.13 1.29 6.1 2.9 8.87 4.79.13.1.26.19.39.27.64.45 1.28.91 1.89 1.39a48.912 48.912 0 0 1 13.42 15.92c.26.5.54.97.88 1.41.1.13.19.25.3.37 4.87 5.6 11.8.12 6.06-13.35 4.14-6.12 5.97-12.33 5.97-18.34zm-107.58 46.18c-.01-.15-.03-.3-.05-.47.03.17.05.32.06.47.01.07.01.13.02.2l-.03-.2z"/><path fill="url(#a)" d="M166.981 184.616c-.2-.33-.17.16.05.1-.02-.04-.04-.07-.05-.1zm-.31-.66c-.01-.02-.03-.06-.04-.09-.21.06.17.5.07.17-.01-.03-.02-.05-.03-.08z"/><path fill="none" d="M164.383 126.373c-.143.266-.28.532-.409.798.13-.266.266-.532.403-.798"/><path fill="url(#a)" d="M255.426 115.215a3.43 3.43 0 0 1-.673 1.207c-.058.066-.116.132-.183.198a3.515 3.515 0 0 1-3.577.867l-.005-.004a2.838 2.838 0 0 1-.52-.217 3.116 3.116 0 0 1-.467-.282s-.005 0-.005-.004a3.067 3.067 0 0 1-.409-.353 3.467 3.467 0 0 1-.843-1.344 3.49 3.49 0 0 1-.024-2.228c.115-.366.286-.697.499-.991.005 0 .005 0 .004-.005.107-.145.223-.281.348-.409.278-.278.603-.507.957-.681.091-.044.186-.087.282-.117a.57.57 0 0 1 .114-.044c.082-.03.169-.055.255-.08a3.487 3.487 0 0 1 2.833.466 3.211 3.211 0 0 1 .629.536c.094.099.184.202.265.315.105.144.2.294.283.452.082.159.151.322.21.491.245.691.27 1.472.027 2.227z"/><path fill="#00AEEF" d="M196.011 216.725c.03.227.061.416.068.545a3.425 3.425 0 0 1-.023-.151 4.988 4.988 0 0 1-.045-.394zm.068.545c.038.235.038.25 0 0z"/><path fill="#00AEEF" d="M196.011 216.725c.03.227.061.416.068.545a3.425 3.425 0 0 1-.023-.151 4.988 4.988 0 0 1-.045-.394zm.068.545c.038.235.038.25 0 0z"/><path fill="#fff" d="M238.732 122.767c-.128-.083-.257-.174-.395-.266a48.05 48.05 0 0 0-8.864-4.799h-.009c-.385-.156-.78-.312-1.165-.468-.45-.165-.899-.33-1.349-.486-.294-.11-.596-.211-.899-.303a48.356 48.356 0 0 0-6.322-1.606 49.752 49.752 0 0 0-10.956-.715l-.945.055a.132.132 0 0 0-.018-.055c-25.554 1.642-45.832 22.957-45.832 48.924 0 2.588.202 5.129.596 7.607a44.775 44.775 0 0 1-5.808-22.122c0-24.866 20.159-45.024 45.034-45.024.551 0 1.101.009 1.642.028.358.018.716.027 1.074.055 14.048.835 26.343 8.102 34.005 18.892a4.184 4.184 0 0 1 .211.283z"/><path fill="#fff" d="M238.888 143.045a34.833 34.833 0 0 0-1.734-2.45 14.325 14.325 0 0 0-.486-.606 30.704 30.704 0 0 0-1.973-2.23 24.35 24.35 0 0 0-.835-.835 32.763 32.763 0 0 0-2.074-1.844c-.266-.22-.541-.431-.817-.642-.266-.202-.532-.404-.807-.596a12.127 12.127 0 0 0-.707-.495c-.312-.22-.624-.422-.945-.624a21.72 21.72 0 0 0-.762-.477c-.055-.027-.11-.064-.165-.092a48.09 48.09 0 0 0-.762-.44c-.018-.009-.027-.018-.046-.028a21.364 21.364 0 0 0-.807-.431 32.742 32.742 0 0 0-3.514-1.578c-.266-.11-.541-.211-.817-.303a32.586 32.586 0 0 0-5.056-1.367 27.641 27.641 0 0 0-2.285-.367l-.771-.083h-.046a54.885 54.885 0 0 0-1.211-.101c-.45-.028-.89-.046-1.34-.055-.248-.009-.505-.009-.762-.009h-.156c-.101 0-.202 0-.303.009a27.61 27.61 0 0 0-2.45.119c-.266.018-.514.037-.78.073a34.5 34.5 0 0 0-1.908.266c-.165.027-.33.055-.505.092-.339.055-.679.119-1.009.193-.395.083-.789.174-1.184.275-.67.165-1.349.358-2.028.578-.266.083-.532.174-.798.266-.973.339-1.936.725-2.9 1.156-.202.092-.404.184-.606.284a30.402 30.402 0 0 0-1.982 1.028c-.624.349-1.239.716-1.853 1.11-9.8 6.313-15.296 16.828-15.635 27.673v1.642c.018 1.89.211 3.771.569 5.643a33.988 33.988 0 0 0 4.037 10.873c.156.266.312.532.477.789.11.193.229.376.349.56 10.212 15.846 31.344 20.416 47.19 10.203 8.928-5.753 14.286-14.993 15.415-24.802.875-7.568-.758-15.487-5.218-22.377zm-13.809 41.574c-12.745 8.212-29.747 4.542-37.968-8.212-.092-.147-.184-.284-.266-.431-.165-.266-.33-.523-.477-.789a27.29 27.29 0 0 1-3.432-10.323c-1.239-10.111 3.239-20.526 12.396-26.416a27.304 27.304 0 0 1 14.571-4.377c.312-.009.615-.009.918 0 8.799.202 17.342 4.625 22.462 12.58a27.256 27.256 0 0 1 4.34 16.342c-.46 8.496-4.846 16.671-12.544 21.626z"/><circle fill="#fff" cx="210.201" cy="161.531" r="28.019"/><path d="M134.914 232.86v-24.531h4.765c3.098 0 5.278.176 6.54.528a8.432 8.432 0 0 1 3.318 1.768c1.257 1.083 2.21 2.475 2.858 4.172.648 1.698.972 3.637.972 5.815 0 2.178-.324 4.108-.972 5.789-.648 1.681-1.601 3.069-2.858 4.164a8.51 8.51 0 0 1-3.244 1.768c-1.213.352-3.1.528-5.663.528h-5.716zm3.533-3.603h2.97c1.633 0 2.857-.123 3.674-.369a5.185 5.185 0 0 0 2.13-1.24c.822-.793 1.438-1.779 1.848-2.957.411-1.178.616-2.549.616-4.114 0-1.564-.205-2.934-.616-4.114-.41-1.178-1.026-2.164-1.848-2.957a5.249 5.249 0 0 0-2.204-1.239c-.856-.245-2.194-.369-4.015-.369h-2.554v17.359zm22.013 3.603v-24.531h12.128v3.385h-8.595v6.15h8.595v3.502h-8.595v7.925h8.595v3.569H160.46zm33.578 0l-2.464-6.317h-8.611l-2.523 6.317h-3.711l10.525-25.503 10.51 25.503h-3.726zm-9.769-9.635h6.057l-2.227-5.597a24.887 24.887 0 0 1-.401-1.231 31.477 31.477 0 0 1-.416-1.55 23.858 23.858 0 0 1-.786 2.781l-2.227 5.597zm18.583 9.635v-24.531h3.533v20.962h7.897v3.569h-11.43zm17.337 0v-24.531h12.128v3.385h-8.595v6.115h8.595v3.502h-8.595v11.529h-3.533zm19.059 0v-24.531h3.533v24.531h-3.533zm11.65 0v-25.503l13.807 14.998a32.463 32.463 0 0 1 2.36 2.982V208.33h3.267v25.486l-14.088-15.265a19.808 19.808 0 0 1-2.093-2.748v17.058h-3.253z" fill="#fff"/></svg>