<svg height="60" width="60" xmlns="http://www.w3.org/2000/svg"><g fill="none" fill-rule="evenodd"><circle cx="30" cy="30" fill="#FFF" r="30"/><path d="M47.974 30.145c0 6.153-4.98 11.142-11.121 11.142-6.143 0-11.122-4.989-11.122-11.142 0-6.154 4.98-11.143 11.122-11.143 6.142 0 11.12 4.989 11.12 11.143z" fill="#F79F1A"/><path d="M34.254 30.145c0 6.153-4.979 11.142-11.121 11.142s-11.121-4.989-11.121-11.142c0-6.154 4.979-11.143 11.12-11.143 6.143 0 11.122 4.989 11.122 11.143z" fill="#EA001B"/><path d="M29.993 21.373a11.127 11.127 0 0 0-4.26 8.77c0 3.561 1.665 6.733 4.26 8.773a11.132 11.132 0 0 0 4.26-8.772c0-3.561-1.665-6.73-4.26-8.77z" fill="#FF5F01"/></g></svg>