<svg height="56" width="87" xmlns="http://www.w3.org/2000/svg"><path d="M86 52.636C86 53.941 84.84 55 83.407 55H3.593C2.161 55 1 53.941 1 52.636V3.365C1 2.059 2.161 1 3.593 1h79.814C84.84 1 86 2.059 86 3.365v49.271z" fill="#F1F2F2"/><path fill="#231F20" d="M69.126 28.887h-6.453v-6.158h-.983v6.158h-.027v.945h.027v15.714h.983V29.832h6.453z"/><path d="M82.884 24.565h-.62v9.206H70.01a.413.413 0 1 1 0-.825h11.402v-9.467a.238.238 0 0 0-.239-.239s-3.165.188-6.337.516c-3.577.37-5.001.604-5.367.772-.4.185-.675.616-.675 1.202v8.146c0 .396.321.717.717.717h13.373a.237.237 0 0 0 .239-.238v-9.55a.238.238 0 0 0-.239-.24z" fill="#F37721"/><path d="M77.435 30.233h3.083c1.078 0 2.605.287 2.605 1.931 0 0 .377-.677.377-.974v-2.738c0-.431-.251-1.595-2.44-1.595h-3.625l-.637 1.195s-.068.366.101.8l.536 1.381z" fill="#FFF"/><path d="M77.435 29.694h3.58s2.108-.068 2.108 1.322c0 0 .377-.068.377-.365v-2.736c0-.433-.251-1.597-2.44-1.597h-3.625l-.637 1.734.637 1.642zm-13.044-1.079h-1.397v-.927H61.37v3.344h1.624v-.927h1.397z" fill="#F37721"/><path d="M5.014 36.367H3.5v-3.776h1.095c.072-.083.151-.193.237-.327.085-.133.17-.299.255-.492.195-.389.368-.934.52-1.633.153-.699.229-1.614.229-2.745v-2.022h5.656v7.22h1.247v3.776h-1.515v-2.48h-6.21v2.479zm4.963-9.695H7.351c.011 1.547-.056 2.75-.201 3.608a7.24 7.24 0 0 1-.785 2.311h3.612v-5.919zm11.561 5.725a5.346 5.346 0 0 1-.567.584 4.49 4.49 0 0 1-.584.438c-.511.303-.994.488-1.451.554-.457.068-.769.102-.94.102-1.327 0-2.367-.436-3.122-1.307-.755-.87-1.132-1.896-1.132-3.076 0-1.266.368-2.339 1.105-3.216.736-.875 1.7-1.315 2.894-1.315 1.241 0 2.157.412 2.747 1.231a5.361 5.361 0 0 1 1.013 2.707 5.615 5.615 0 0 1 .037.622v.2h-6.062v.146c0 .673.2 1.292.602 1.861.402.568 1.041.851 1.917.851.304 0 .578-.031.822-.1.243-.065.481-.167.711-.302.171-.107.34-.236.511-.382.171-.146.354-.315.547-.511l.952.913zm-1.715-3.79a4.288 4.288 0 0 0-.063-.408 3.434 3.434 0 0 0-.137-.48 2.439 2.439 0 0 0-.647-.845c-.298-.26-.726-.391-1.286-.391-.621 0-1.083.152-1.386.454a2.382 2.382 0 0 0-.621.982c-.036.12-.063.239-.082.353a7.633 7.633 0 0 0-.045.336h4.267zm5.09 5.28h-1.514v-8.516h1.514v3.256h3.962v-3.256h1.514v8.516h-1.514V29.94h-3.962zm9.504-8.516v2.576h1.784c1.371 0 2.283.275 2.738.828s.682 1.224.682 2.014c0 .887-.224 1.626-.673 2.214-.449.589-1.444.884-2.986.884h-3.058v-8.516h1.513zm1.673 7.202c.715 0 1.188-.151 1.417-.455.23-.303.358-.637.382-1.001v-.183c0-.461-.113-.854-.337-1.183-.225-.328-.711-.492-1.463-.492h-1.673v3.313h1.674zm6.849 1.314h-1.514v-8.516h5.456v1.301h-3.942zm10.97-7.168v-1.348h1.514v8.516h-1.514v-5.272l-3.963 4.013v1.259h-1.513v-8.516h1.513v5.361z" fill="#231F20"/><path fill="#F37721" d="M82.264 26.129h.859v6.439h-.859z"/><circle cx="79.145" cy="27.924" fill="#FFF" r=".795"/><path d="M29.963 21.042c-.292 0-.401-.282-.401-.282l-1.423-3.211 1.206-2.357s.108-.278.401-.278h.228v-.558H28.03v.558h.275c.295 0 .189.278.189.278l-.742 1.487-.66-1.487s-.104-.278.188-.278h.248v-.558h-2.239v.558h.225c.297 0 .404.278.404.278l1.213 2.744-1.402 2.825s-.106.282-.402.282h-.185v.555h1.856v-.555h-.316c-.294 0-.186-.282-.186-.282l1.012-1.976.875 1.976s.111.282-.185.282h-.289v.555h2.24v-.555c0-.001.03-.001-.186-.001" fill="#231F20"/><path d="M10.081 11.012h.474v-.558H8.227c-.373 0-3.152-.075-3.152 2.675v.197c0 1.431 1.007 2.416 1.701 2.595a1.392 1.392 0 0 0-.81.579c-.325.511-.52 1.136-.646 2.124-.133 1.036-.127 2.023-.507 2.346-.155.131-.378.18-.61.155v.476c.231.137.554.204.894.14 1.007-.194 1.372-1.08 1.493-1.817.218-1.354.155-3.568 1.426-4.063l.448-.001v4.899s0 .282-.294.282h-.472v.555h2.857v-.555h-.474c-.293 0-.293-.282-.293-.282v-9.47c-.001.001-.001-.277.293-.277zm-1.619 4.291h-.294c-.454 0-1.825 0-1.825-2.004l.027-.809c0-1.478 1.323-1.478 1.849-1.478h.243v4.291" fill="#EE3524"/><path d="M24.993 18.338h.378c.006-.133.007-.263.007-.399 0-2.114-.629-3.742-2.142-3.742-1.514 0-2.144 1.628-2.144 3.742 0 2.113.63 3.769 2.144 3.769 1.155 0 1.756-.943 2.02-2.353h-1.113c-.089 1.07-.281 1.739-.907 1.739-.807 0-.931-1.149-.953-2.756h2.71zm-1.756-3.525c.807 0 .93 1.12.954 2.728h-1.907c.022-1.609.146-2.728.953-2.728m-2.542 6.229c-.294 0-.294-.282-.294-.282V10.455h-1.735v.558h.587v3.558c-.231-.218-.587-.345-.962-.345-1.515 0-2.232 1.629-2.232 3.743 0 2.112.571 3.741 2.083 3.741.435 0 .822-.19 1.111-.671l.317.56h1.421v-.555c0-.002 0-.002-.296-.002zm-2.493.053c-.874 0-.9-1.324-.9-3.127 0-1.805.027-3.128.9-3.128 1.189 0 .988 1.323.988 3.128 0 1.655.201 3.127-.988 3.127m-2.572-.053c-.293 0-.293-.282-.293-.282v-5.066c0-.5-.21-1.505-1.532-1.505-.781 0-1.121.542-1.238.686l-.341-.604h-1.393v.557h.586v5.932s0 .282-.295.282h-.292v.555h2.325v-.555h-.296c-.294 0-.294-.282-.294-.282v-4.334c0-.514.055-.759.083-.854.102-.29.332-.659.833-.659.588 0 .702.538.702.807v5.04s0 .282-.292.282h-.294v.555h2.325v-.555h-.294" fill="#231F20"/></svg>