<?xml version="1.0" encoding="utf-8"?>
<!-- Generator: Adobe Illustrator 17.0.1, SVG Export Plug-In . SVG Version: 6.00 Build 0)  -->
<!DOCTYPE svg PUBLIC "-//W3C//DTD SVG 1.0//EN" "http://www.w3.org/TR/2001/REC-SVG-20010904/DTD/svg10.dtd">
<svg version="1.0" id="Layer_1" xmlns="http://www.w3.org/2000/svg" xmlns:xlink="http://www.w3.org/1999/xlink" x="0px" y="0px" width="100px" height="100px" viewBox="0 0 400 300" enable-background="new 0 0 400 300" xml:space="preserve">
<pattern  width="92" height="92" patternUnits="userSpaceOnUse" id="New_Pattern_Swatch_2" viewBox="0 0 0 0" overflow="visible">
</pattern>
<rect x="0" y="0" fill="url(#New_Pattern_Swatch_2)" width="523" height="410.637"/>
<g>
	
	<path fill="url(#New_Pattern_Swatch_2)" d="M166.981,184.616c-0.2-0.33-0.17,0.16,0.05,0.1
		C167.011,184.676,166.991,184.646,166.981,184.616z M166.671,183.956c-0.01-0.02-0.03-0.06-0.04-0.09
		c-0.21,0.06,0.17,0.5,0.07,0.17C166.691,184.006,166.681,183.986,166.671,183.956z"/>
	<path fill="none" d="M164.383,126.373c-0.143,0.266-0.28,0.532-0.409,0.798c0.13-0.266,0.266-0.532,0.403-0.798"/>
	

	<path fill="#00AEEF" d="M196.079,217.27C196.117,217.505,196.117,217.52,196.079,217.27L196.079,217.27z"/>
	<path fill="#00AEEF" d="M196.011,216.725c0.03,0.227,0.061,0.416,0.068,0.545c-0.008-0.045-0.015-0.091-0.023-0.151
		C196.041,217.035,196.026,216.899,196.011,216.725z"/>
	<path fill="#00AEEF" d="M196.079,217.27C196.117,217.505,196.117,217.52,196.079,217.27L196.079,217.27z"/>
	<g>
		<g>
			<g>
				
			</g>
		</g>
	</g>
	<g>
		<g>
			<path fill="#fff" d="M134.914,232.86v-24.531h4.765c3.098,0,5.278,0.176,6.54,0.528c1.261,0.351,2.367,0.941,3.318,1.768
				c1.257,1.083,2.21,2.475,2.858,4.172c0.648,1.698,0.972,3.637,0.972,5.815c0,2.178-0.324,4.108-0.972,5.789
				c-0.648,1.681-1.601,3.069-2.858,4.164c-0.951,0.827-2.032,1.415-3.244,1.768c-1.213,0.352-3.1,0.528-5.663,0.528h-0.951H134.914
				z M138.447,229.257h2.97c1.633,0,2.857-0.123,3.674-0.369c0.816-0.245,1.526-0.66,2.13-1.24c0.822-0.793,1.438-1.779,1.848-2.957
				c0.411-1.178,0.616-2.549,0.616-4.114c0-1.564-0.205-2.934-0.616-4.114c-0.41-1.178-1.026-2.164-1.848-2.957
				c-0.613-0.581-1.348-0.994-2.204-1.239c-0.856-0.245-2.194-0.369-4.015-0.369h-1.277h-1.277V229.257z"/>
			<path fill="#fff" d="M160.46,232.86v-24.531h12.128v3.385h-8.595v6.15h8.595v3.502h-8.595v7.925h8.595v3.569H160.46z"/>
			<path fill="#fff" d="M194.038,232.86l-2.464-6.317h-8.611l-2.523,6.317h-3.711l10.525-25.503l10.51,25.503H194.038z
				 M184.269,223.225h6.057l-2.227-5.597c-0.128-0.357-0.262-0.768-0.401-1.231c-0.139-0.464-0.277-0.981-0.416-1.55
				c-0.118,0.536-0.244,1.036-0.378,1.499c-0.134,0.464-0.27,0.892-0.408,1.282L184.269,223.225z"/>
			<path fill="#fff" d="M202.852,232.86v-24.531h3.533v20.962h7.897v3.569H202.852z"/>
			<path fill="#fff" d="M220.189,232.86v-24.531h12.128v3.385h-8.595v6.115h8.595v3.502h-8.595v11.529H220.189z"/>
			<path fill="#fff" d="M239.248,232.86v-24.531h3.533v24.531H239.248z"/>
			<path fill="#fff" d="M250.898,232.86v-25.503l13.807,14.998c0.376,0.425,0.757,0.877,1.143,1.356
				c0.386,0.48,0.791,1.022,1.217,1.626v-17.007h3.267v25.486l-14.088-15.265c-0.377-0.413-0.74-0.849-1.091-1.307
				s-0.685-0.938-1.002-1.441v17.058H250.898z"/>
		</g>
	</g>
</g>
</svg>