<?xml version="1.0" encoding="utf-8"?>
<!-- Generator: Adobe Illustrator 17.0.1, SVG Export Plug-In . SVG Version: 6.00 Build 0)  -->
<!DOCTYPE svg PUBLIC "-//W3C//DTD SVG 1.0//EN" "http://www.w3.org/TR/2001/REC-SVG-20010904/DTD/svg10.dtd">
<svg version="1.0" id="Layer_1" xmlns="http://www.w3.org/2000/svg" xmlns:xlink="http://www.w3.org/1999/xlink" x="0px" y="0px"
	 width="400px" height="300px" viewBox="0 0 400 300" enable-background="new 0 0 400 300" xml:space="preserve">
<pattern  width="92" height="92" patternUnits="userSpaceOnUse" id="New_Pattern_Swatch_2" viewBox="0 0 0 0" overflow="visible">
</pattern>
<rect x="0" y="0" fill="url(#New_Pattern_Swatch_2)" width="523" height="410.637"/>
<g>
	<path fill="#fff" d="M267.251,110.166c0-7.07-2.53-13.87-6.84-19.98c-0.89-0.96-1.8-1.92-2.74-2.85
		c-13.85-13.64-32.17-21.15-51.59-21.15c-11.62,0-22.62,2.7-32.4,7.54c-3.4-0.69-6.92-1.05-10.52-1.05
		c-19.04,0-35.78,10.04-45.19,25.11c2.17-0.53,4.44-0.81,6.77-0.81c6.64,0,12.76,2.26,17.63,6.04c-1.52,2.63-2.88,5.35-4.07,8.17
		c0,0.04-0.01,0.07-0.03,0.1c-0.12,0.3-0.25,0.59-0.37,0.88c-3.44,8.51-5.34,17.8-5.34,27.53c0,3.63,0.27,7.29,0.8,10.86
		c0.05,0.39,0.12,0.77,0.18,1.15c0.06,0.35,0.11,0.71,0.19,1.06c0.22,1.23,0.46,2.46,0.76,3.68c2.59,8.04,6.7,15.12,11.61,20.77
		c2.7,3.11,5.64,5.79,8.69,7.95c0.44,0.33,0.87,0.62,1.32,0.9c3.9,2.58,7.97,4.32,11.96,5.1l3.21,0.57
		c-1.61-2.21-3.03-4.56-4.25-7.02c-0.22,0.06-0.25-0.43-0.05-0.1c-0.1-0.18-0.19-0.38-0.28-0.58c0.1,0.33-0.28-0.11-0.07-0.17
		c-1.95-4.13-3.34-8.55-4.06-13.2v-0.01c-0.39-2.48-0.59-5.02-0.59-7.61c0-25.97,20.28-47.28,45.83-48.92
		c0.01,0.02,0.02,0.03,0.02,0.05c0.31-0.02,0.62-0.03,0.94-0.05c0.35-0.02,0.7-0.03,1.05-0.04c3.38-0.08,6.7,0.18,9.91,0.75
		c2.15,0.4,4.27,0.94,6.32,1.61c0.3,0.09,0.61,0.19,0.9,0.3c0.45,0.16,0.9,0.32,1.35,0.49c0.38,0.14,0.78,0.3,1.16,0.46v0.01
		c0.01,0,0.01,0,0.01,0c3.13,1.29,6.1,2.9,8.87,4.79c0.13,0.1,0.26,0.19,0.39,0.27c0.64,0.45,1.28,0.91,1.89,1.39
		c5.53,4.25,10.13,9.69,13.42,15.92c0.26,0.5,0.54,0.97,0.88,1.41c0.1,0.13,0.19,0.25,0.3,0.37c4.87,5.6,11.8,0.12,6.06-13.35
		C265.421,122.386,267.251,116.176,267.251,110.166z M159.671,156.346c-0.01-0.15-0.03-0.3-0.05-0.47c0.03,0.17,0.05,0.32,0.06,0.47
		c0.01,0.07,0.01,0.13,0.02,0.2C159.691,156.486,159.681,156.416,159.671,156.346z"/>
	<path fill="url(#New_Pattern_Swatch_2)" d="M166.981,184.616c-0.2-0.33-0.17,0.16,0.05,0.1
		C167.011,184.676,166.991,184.646,166.981,184.616z M166.671,183.956c-0.01-0.02-0.03-0.06-0.04-0.09
		c-0.21,0.06,0.17,0.5,0.07,0.17C166.691,184.006,166.681,183.986,166.671,183.956z"/>
	<path fill="none" d="M164.383,126.373c-0.143,0.266-0.28,0.532-0.409,0.798c0.13-0.266,0.266-0.532,0.403-0.798"/>
	<path fill="url(#New_Pattern_Swatch_2)" d="M255.426,115.215c-0.145,0.459-0.378,0.864-0.673,1.207
		c-0.058,0.066-0.116,0.132-0.183,0.198c-0.834,0.839-2.069,1.229-3.285,0.947c-0.097-0.021-0.194-0.05-0.292-0.08l-0.005-0.004
		c-0.181-0.055-0.357-0.129-0.52-0.217c-0.163-0.079-0.321-0.176-0.467-0.282c0,0-0.005,0-0.005-0.004
		c-0.145-0.107-0.286-0.223-0.409-0.353c-0.382-0.376-0.669-0.838-0.843-1.344c-0.243-0.692-0.267-1.473-0.024-2.228
		c0.115-0.366,0.286-0.697,0.499-0.991c0.005,0,0.005,0,0.004-0.005c0.107-0.145,0.223-0.281,0.348-0.409
		c0.278-0.278,0.603-0.507,0.957-0.681c0.091-0.044,0.186-0.087,0.282-0.117c0.036-0.019,0.077-0.034,0.114-0.044
		c0.082-0.03,0.169-0.055,0.255-0.08c0.63-0.168,1.31-0.162,1.973,0.051c0.181,0.06,0.357,0.133,0.52,0.217
		c0.121,0.061,0.233,0.127,0.34,0.198c0.201,0.133,0.384,0.28,0.544,0.446c0.033,0.031,0.061,0.058,0.085,0.09
		c0.094,0.099,0.184,0.202,0.265,0.315c0.105,0.144,0.2,0.294,0.283,0.452c0.082,0.159,0.151,0.322,0.21,0.491
		C255.644,113.679,255.669,114.46,255.426,115.215z"/>
	<path fill="#00AEEF" d="M196.011,216.725c0.03,0.227,0.061,0.416,0.068,0.545c-0.008-0.045-0.015-0.091-0.023-0.151
		C196.041,217.035,196.026,216.899,196.011,216.725z"/>
	<path fill="#00AEEF" d="M196.079,217.27C196.117,217.505,196.117,217.52,196.079,217.27L196.079,217.27z"/>
	<path fill="#00AEEF" d="M196.011,216.725c0.03,0.227,0.061,0.416,0.068,0.545c-0.008-0.045-0.015-0.091-0.023-0.151
		C196.041,217.035,196.026,216.899,196.011,216.725z"/>
	<path fill="#00AEEF" d="M196.079,217.27C196.117,217.505,196.117,217.52,196.079,217.27L196.079,217.27z"/>
	<path fill="#fff" d="M238.732,122.767c-0.128-0.083-0.257-0.174-0.395-0.266c-2.762-1.899-5.735-3.505-8.864-4.799
		c0,0,0,0-0.009,0c-0.385-0.156-0.78-0.312-1.165-0.468c-0.45-0.165-0.899-0.33-1.349-0.486c-0.294-0.11-0.596-0.211-0.899-0.303
		c-2.046-0.67-4.166-1.211-6.322-1.606c-3.211-0.569-6.524-0.835-9.91-0.752c-0.349,0.009-0.697,0.018-1.046,0.037
		c-0.321,0.018-0.633,0.037-0.945,0.055c0-0.018-0.009-0.037-0.018-0.055c-25.554,1.642-45.832,22.957-45.832,48.924
		c0,2.588,0.202,5.129,0.596,7.607c-3.698-6.533-5.808-14.084-5.808-22.122c0-24.866,20.159-45.024,45.034-45.024
		c0.551,0,1.101,0.009,1.642,0.028c0.358,0.018,0.716,0.027,1.074,0.055c14.048,0.835,26.343,8.102,34.005,18.892
		c0,0,0.009,0,0.009,0.009C238.604,122.583,238.668,122.675,238.732,122.767z"/>
	<g>
		<g>
			<g>
				<g>
					<path fill="#fff" d="M238.888,143.045c-0.551-0.853-1.129-1.67-1.734-2.45c-0.156-0.202-0.312-0.404-0.486-0.606
						c-0.624-0.78-1.285-1.523-1.973-2.23c-0.275-0.284-0.551-0.569-0.835-0.835c-0.67-0.651-1.358-1.257-2.074-1.844
						c-0.266-0.22-0.541-0.431-0.817-0.642c-0.266-0.202-0.532-0.404-0.807-0.596c-0.229-0.174-0.468-0.339-0.707-0.495
						c-0.312-0.22-0.624-0.422-0.945-0.624c-0.248-0.165-0.505-0.321-0.762-0.477c-0.055-0.027-0.11-0.064-0.165-0.092
						c-0.248-0.147-0.505-0.294-0.762-0.44c-0.018-0.009-0.027-0.018-0.046-0.028c-0.266-0.147-0.532-0.294-0.807-0.431
						c-1.138-0.596-2.312-1.119-3.514-1.578c-0.266-0.11-0.541-0.211-0.817-0.303c-1.386-0.495-2.789-0.899-4.221-1.202
						c-0.284-0.064-0.56-0.119-0.835-0.165c-0.762-0.156-1.514-0.275-2.285-0.367c-0.257-0.028-0.514-0.055-0.771-0.083h-0.046
						c-0.404-0.037-0.807-0.073-1.211-0.101c-0.45-0.028-0.89-0.046-1.34-0.055c-0.248-0.009-0.505-0.009-0.762-0.009h-0.156
						c-0.101,0-0.202,0-0.303,0.009c-0.294,0-0.587,0.009-0.872,0.018c-0.532,0.018-1.055,0.055-1.578,0.101
						c-0.266,0.018-0.514,0.037-0.78,0.073c-0.321,0.037-0.633,0.073-0.954,0.119c-0.321,0.046-0.642,0.092-0.954,0.147
						c-0.165,0.027-0.33,0.055-0.505,0.092c-0.339,0.055-0.679,0.119-1.009,0.193c-0.395,0.083-0.789,0.174-1.184,0.275
						c-0.67,0.165-1.349,0.358-2.028,0.578c-0.266,0.083-0.532,0.174-0.798,0.266c-0.973,0.339-1.936,0.725-2.9,1.156
						c-0.202,0.092-0.404,0.184-0.606,0.284c-0.45,0.211-0.899,0.44-1.349,0.679c-0.211,0.11-0.422,0.229-0.633,0.349
						c-0.624,0.349-1.239,0.716-1.853,1.11c-9.8,6.313-15.296,16.828-15.635,27.673v1.642c0.018,1.89,0.211,3.771,0.569,5.643
						c0.697,3.734,2.028,7.423,4.037,10.873c0.156,0.266,0.312,0.532,0.477,0.789c0.11,0.193,0.229,0.376,0.349,0.56
						c10.212,15.846,31.344,20.416,47.19,10.203c8.928-5.753,14.286-14.993,15.415-24.802
						C244.981,157.854,243.348,149.935,238.888,143.045z M225.079,184.619c-12.745,8.212-29.747,4.542-37.968-8.212
						c-0.092-0.147-0.184-0.284-0.266-0.431c-0.165-0.266-0.33-0.523-0.477-0.789c-1.872-3.276-3.01-6.781-3.432-10.323
						c-1.239-10.111,3.239-20.526,12.396-26.416c4.514-2.909,9.57-4.331,14.571-4.377c0.312-0.009,0.615-0.009,0.918,0
						c8.799,0.202,17.342,4.625,22.462,12.58c3.257,5.047,4.652,10.772,4.34,16.342
						C237.163,171.489,232.777,179.664,225.079,184.619z"/>
				</g>
			</g>
			<g>
				<circle fill="#fff" cx="210.201" cy="161.531" r="28.019"/>
			</g>
		</g>
	</g>
	<g>
		<g>
			<path fill="#fff" d="M134.914,232.86v-24.531h4.765c3.098,0,5.278,0.176,6.54,0.528c1.261,0.351,2.367,0.941,3.318,1.768
				c1.257,1.083,2.21,2.475,2.858,4.172c0.648,1.698,0.972,3.637,0.972,5.815c0,2.178-0.324,4.108-0.972,5.789
				c-0.648,1.681-1.601,3.069-2.858,4.164c-0.951,0.827-2.032,1.415-3.244,1.768c-1.213,0.352-3.1,0.528-5.663,0.528h-0.951H134.914
				z M138.447,229.257h2.97c1.633,0,2.857-0.123,3.674-0.369c0.816-0.245,1.526-0.66,2.13-1.24c0.822-0.793,1.438-1.779,1.848-2.957
				c0.411-1.178,0.616-2.549,0.616-4.114c0-1.564-0.205-2.934-0.616-4.114c-0.41-1.178-1.026-2.164-1.848-2.957
				c-0.613-0.581-1.348-0.994-2.204-1.239c-0.856-0.245-2.194-0.369-4.015-0.369h-1.277h-1.277V229.257z"/>
			<path fill="#fff" d="M160.46,232.86v-24.531h12.128v3.385h-8.595v6.15h8.595v3.502h-8.595v7.925h8.595v3.569H160.46z"/>
			<path fill="#fff" d="M194.038,232.86l-2.464-6.317h-8.611l-2.523,6.317h-3.711l10.525-25.503l10.51,25.503H194.038z
				 M184.269,223.225h6.057l-2.227-5.597c-0.128-0.357-0.262-0.768-0.401-1.231c-0.139-0.464-0.277-0.981-0.416-1.55
				c-0.118,0.536-0.244,1.036-0.378,1.499c-0.134,0.464-0.27,0.892-0.408,1.282L184.269,223.225z"/>
			<path fill="#fff" d="M202.852,232.86v-24.531h3.533v20.962h7.897v3.569H202.852z"/>
			<path fill="#fff" d="M220.189,232.86v-24.531h12.128v3.385h-8.595v6.115h8.595v3.502h-8.595v11.529H220.189z"/>
			<path fill="#fff" d="M239.248,232.86v-24.531h3.533v24.531H239.248z"/>
			<path fill="#fff" d="M250.898,232.86v-25.503l13.807,14.998c0.376,0.425,0.757,0.877,1.143,1.356
				c0.386,0.48,0.791,1.022,1.217,1.626v-17.007h3.267v25.486l-14.088-15.265c-0.377-0.413-0.74-0.849-1.091-1.307
				s-0.685-0.938-1.002-1.441v17.058H250.898z"/>
		</g>
	</g>
</g>
</svg>
