<?xml version="1.0" ?><!DOCTYPE svg  PUBLIC '-//W3C//DTD SVG 1.1//EN'  'http://www.w3.org/Graphics/SVG/1.1/DTD/svg11.dtd'><svg enable-background="new 0 0 87 56" height="56px" id="Layer_1" version="1.1" viewBox="0 0 87 56" width="87px" xml:space="preserve" xmlns="http://www.w3.org/2000/svg" xmlns:xlink="http://www.w3.org/1999/xlink"><path d="M86,52.636C86,53.941,84.84,55,83.407,55H3.593C2.161,55,1,53.941,1,52.636V3.365C1,2.059,2.161,1,3.593,1  h79.814C84.84,1,86,2.059,86,3.365V52.636z" fill="#F1F2F2"/><g><g><path clip-rule="evenodd" d="M13.945,17.555c1.64,0,3.193,0.381,4.577,1.06    c0.217,0.103,0.434,0.216,0.651,0.341l-0.961,0.861l-1.445-1.494l-2.438,2.175l-1.448-1.581l-4.542,4.095l2.912,3.208    l-1.145,1.007l2.868,3.214l-1.137,1.004l4.098,4.562l2.433-2.24l2.104,2.4c-0.418,0.325-0.874,0.632-1.376,0.915    c-1.521,0.867-3.279,1.363-5.15,1.363C8.192,38.445,3.5,33.753,3.5,28C3.5,22.247,8.192,17.555,13.945,17.555L13.945,17.555z" fill="#1A5EAB" fill-rule="evenodd"/><polygon clip-rule="evenodd" fill="#1A5EAB" fill-rule="evenodd" points="12.042,27.34 14.525,25.103 16.762,27.587     14.278,29.824 12.042,27.34   "/><polygon clip-rule="evenodd" fill="#1A5EAB" fill-rule="evenodd" points="13.809,31.632 16.292,29.396 18.529,31.88     16.045,34.116 13.809,31.632   "/><polygon clip-rule="evenodd" fill="#1A5EAB" fill-rule="evenodd" points="10.264,23.098 12.748,20.862 14.984,23.346 12.5,25.582     10.264,23.098   "/><polygon clip-rule="evenodd" fill="#1A5EAB" fill-rule="evenodd" points="14.822,21.895 16.685,20.217 18.362,22.081 16.5,23.758     14.822,21.895   "/><polygon clip-rule="evenodd" fill="#1A5EAB" fill-rule="evenodd" points="18.133,29.577 19.996,27.9 21.673,29.764 19.81,31.44     18.133,29.577   "/><polygon clip-rule="evenodd" fill="#1A5EAB" fill-rule="evenodd" points="19.771,33.34 21.634,31.662 23.311,33.525     21.448,35.202 19.771,33.34   "/><polygon clip-rule="evenodd" fill="#1A5EAB" fill-rule="evenodd" points="20.522,24.716 21.764,23.597 22.882,24.839     21.64,25.958 20.522,24.716   "/><polygon clip-rule="evenodd" fill="#1A5EAB" fill-rule="evenodd" points="18.935,21.026 20.177,19.908 21.295,21.15     20.053,22.268 18.935,21.026   "/><polygon clip-rule="evenodd" fill="#1A5EAB" fill-rule="evenodd" points="22.109,28.406 23.351,27.288 24.469,28.529     23.228,29.648 22.109,28.406   "/><polygon clip-rule="evenodd" fill="#1A5EAB" fill-rule="evenodd" points="16.54,25.641 18.402,23.963 20.08,25.826 18.217,27.503     16.54,25.641   "/></g><path clip-rule="evenodd" d="M53.164,23.988l-0.059,0.039l-0.059-0.039   c-0.428-0.39-0.896-0.545-1.479-0.545c-1.344,0-2.22,0.935-2.22,2.395c0,0,0,6.678,0,6.834c0.137,0,1.207,0,1.344,0   c0-0.156,0-6.834,0-6.834c0-0.974,0.662-1.051,0.876-1.051c0.156,0,0.39,0.039,0.584,0.195c0.195,0.194,0.292,0.467,0.292,0.856   c0,0,0,6.678,0,6.834c0.137,0,1.207,0,1.344,0c0-0.156,0-6.834,0-6.834c0-0.974,0.662-1.051,0.876-1.051   c0.156,0,0.39,0.039,0.584,0.195c0.195,0.194,0.292,0.467,0.292,0.856c0,0,0,6.678,0,6.834c0.137,0,1.207,0,1.344,0   c0-0.156,0-6.834,0-6.834c0-0.759-0.233-1.382-0.662-1.811c-0.39-0.37-0.935-0.584-1.558-0.584   C54.06,23.442,53.573,23.618,53.164,23.988z" fill="#1A5EAB" fill-rule="evenodd"/><path clip-rule="evenodd" d="M62.958,26.597c-0.447-0.467-1.188-0.876-2.2-0.876   c-0.974,0-1.714,0.409-2.161,0.876c-0.701,0.76-0.838,1.831-0.838,2.667c0,0.818,0.137,1.89,0.838,2.648   c0.447,0.468,1.188,0.876,2.161,0.876c1.013,0,1.753-0.408,2.2-0.876c0.701-0.759,0.837-1.83,0.837-2.648   C63.795,28.427,63.659,27.356,62.958,26.597L62.958,26.597z M62.433,29.557c0,0.643,0,1.363-0.487,1.889   c-0.195,0.194-0.564,0.448-1.188,0.448c-0.584,0-0.954-0.254-1.149-0.448c-0.486-0.525-0.486-1.246-0.486-1.889v-0.604   c0-0.643,0-1.363,0.486-1.869c0.195-0.214,0.565-0.468,1.149-0.468c0.623,0,0.992,0.253,1.188,0.468   c0.487,0.506,0.487,1.227,0.487,1.869V29.557z" fill="#1A5EAB" fill-rule="evenodd"/><path clip-rule="evenodd" d="M64.904,25.837l1.13,0.02v0.604   c0.331-0.233,0.623-0.409,0.955-0.525c0.408-0.175,0.7-0.214,1.109-0.214c0.584,0,1.188,0.117,1.674,0.662   c0.468,0.545,0.565,1.188,0.565,1.733v4.537h-1.247v-4.634c0-1.109-0.7-1.402-1.284-1.402c-0.585,0-1.188,0.253-1.675,0.701v5.335   h-1.228v-5.822V25.837z" fill="#1A5EAB" fill-rule="evenodd"/><path clip-rule="evenodd" d="M76.432,31.328c-0.233,0.117-0.486,0.214-0.798,0.312   c-0.37,0.117-0.662,0.176-1.052,0.176c-0.643,0-1.227-0.214-1.538-0.565c-0.233-0.232-0.486-0.7-0.486-1.518v-0.176h4.205v-0.312   c0-1.09-0.039-1.986-0.72-2.707c-0.448-0.486-1.13-0.817-1.986-0.817c-0.954,0-1.655,0.409-2.083,0.896   c-0.701,0.799-0.779,1.85-0.779,2.531c0,0.759,0.117,1.89,0.817,2.668c0.448,0.525,1.246,0.973,2.376,0.973   c0.506,0,1.052-0.058,1.597-0.272c0.292-0.116,0.623-0.272,0.837-0.39L76.432,31.328L76.432,31.328z M72.558,28.506   c0-0.78,0.253-1.228,0.448-1.442c0.194-0.214,0.506-0.448,1.031-0.448c0.351,0,0.7,0.078,0.954,0.331   c0.448,0.429,0.448,0.954,0.448,1.422v0.292h-2.882V28.506z" fill="#1A5EAB" fill-rule="evenodd"/><path clip-rule="evenodd" d="M83.5,25.857l-2.667,8.022c-0.098,0.351-0.351,0.935-0.644,1.266   c-0.35,0.39-0.817,0.565-1.343,0.565c-0.37,0-0.721-0.078-1.071-0.273c-0.214-0.136-0.429-0.272-0.564-0.428l0.584-0.74   c0.098,0.098,0.233,0.195,0.351,0.272c0.194,0.117,0.429,0.176,0.643,0.176c0.37,0,0.604-0.195,0.721-0.351   c0.136-0.176,0.272-0.584,0.37-0.838l0.155-0.545l-2.862-7.126h1.344l1.713,4.264c0.176,0.408,0.351,1.032,0.39,1.207h0.059   c0.214-0.817,0.312-1.09,0.487-1.596l1.226-3.875H83.5z" fill="#1A5EAB" fill-rule="evenodd"/><path clip-rule="evenodd" d="M31.103,32.263l0.039-0.059l0.059,0.059   c0.447,0.37,0.896,0.546,1.499,0.546c1.343,0,2.22-0.955,2.22-2.396c0,0,0-6.698,0-6.834c-0.137,0-1.227,0-1.363,0   c0,0.137,0,6.834,0,6.834c0,0.974-0.662,1.032-0.857,1.032c-0.175,0-0.409-0.02-0.584-0.195c-0.194-0.175-0.292-0.467-0.292-0.837   c0,0,0-6.698,0-6.834c-0.136,0-1.227,0-1.363,0c0,0.137,0,6.834,0,6.834c0,0.974-0.662,1.032-0.876,1.032   c-0.156,0-0.39-0.02-0.565-0.195c-0.195-0.175-0.292-0.467-0.292-0.837c0,0,0-6.698,0-6.834c-0.136,0-1.227,0-1.363,0   c0,0.137,0,6.834,0,6.834c0,0.74,0.233,1.363,0.662,1.791c0.389,0.39,0.954,0.604,1.558,0.604S30.675,32.613,31.103,32.263z" fill="#1A5EAB" fill-rule="evenodd"/><path clip-rule="evenodd" d="M41.17,31.328c-0.214,0.098-0.467,0.214-0.779,0.312   c-0.37,0.117-0.662,0.176-1.051,0.176c-0.643,0-1.227-0.214-1.539-0.565c-0.214-0.232-0.467-0.7-0.467-1.518v-0.176H41.5v-0.312   c0-1.09-0.039-1.986-0.701-2.707c-0.448-0.467-1.129-0.798-2.006-0.798c-0.915,0-1.616,0.409-2.044,0.876   c-0.72,0.818-0.779,1.869-0.779,2.531c0,0.759,0.098,1.89,0.798,2.668c0.468,0.506,1.246,0.973,2.375,0.973   c0.506,0,1.032-0.077,1.597-0.292c0.292-0.097,0.604-0.272,0.818-0.389L41.17,31.328L41.17,31.328z M37.334,28.506   c0-0.78,0.233-1.208,0.448-1.442c0.175-0.194,0.487-0.448,1.012-0.448c0.351,0,0.701,0.098,0.955,0.351   c0.448,0.409,0.448,0.935,0.448,1.421v0.273h-2.862V28.506z" fill="#1A5EAB" fill-rule="evenodd"/><path clip-rule="evenodd" d="M47.283,26.422c-0.486-0.429-1.168-0.682-1.869-0.682   c-0.312,0-0.643,0.058-0.876,0.097c-0.194,0.059-0.448,0.156-0.662,0.234v-2.667h-1.227v8.665c0.721,0.428,1.577,0.72,2.551,0.72   c0.72,0,1.694-0.155,2.395-1.07c0.565-0.76,0.683-1.714,0.683-2.492C48.277,28.485,48.219,27.22,47.283,26.422L47.283,26.422z    M45.181,26.616c0.487,0,0.993,0.156,1.305,0.487c0.429,0.467,0.429,1.168,0.429,1.771v0.584c0,1.148-0.195,1.616-0.37,1.869   c-0.195,0.254-0.604,0.565-1.305,0.565c-0.253,0-0.565-0.078-0.799-0.137c-0.175-0.059-0.389-0.175-0.564-0.272v-4.459" fill="#1A5EAB" fill-rule="evenodd"/></g></svg>