<?xml version="1.0" ?><!DOCTYPE svg  PUBLIC '-//W3C//DTD SVG 1.1//EN'  'http://www.w3.org/Graphics/SVG/1.1/DTD/svg11.dtd'><svg enable-background="new 0 0 87 56" height="56px" id="Layer_1" version="1.1" viewBox="0 0 87 56" width="87px" xml:space="preserve" xmlns="http://www.w3.org/2000/svg" xmlns:xlink="http://www.w3.org/1999/xlink"><g><path d="M86,52.636C86,53.941,84.84,55,83.407,55H3.593C2.161,55,1,53.941,1,52.636V3.365C1,2.059,2.161,1,3.593,1   h79.814C84.84,1,86,2.059,86,3.365V52.636z" fill="#F1F2F2"/><g><polygon fill="#231F20" points="69.126,28.887 62.673,28.887 62.673,22.729 61.69,22.729 61.69,28.887 61.663,28.887     61.663,29.832 61.69,29.832 61.69,45.546 62.673,45.546 62.673,29.832 69.126,29.832   "/><path d="M82.884,24.565h-0.62v9.206H70.01c-0.229,0-0.413-0.186-0.413-0.412s0.185-0.413,0.413-0.413h11.402    v-9.467c0-0.132-0.106-0.239-0.239-0.239c0,0-3.165,0.188-6.337,0.516c-3.577,0.37-5.001,0.604-5.367,0.772    c-0.4,0.185-0.675,0.616-0.675,1.202v8.146c0,0.396,0.321,0.717,0.717,0.717h13.373c0.133,0,0.239-0.105,0.239-0.238v-9.55    C83.123,24.671,83.017,24.565,82.884,24.565z" fill="#F37721"/><path d="M77.435,30.233c0,0,2.296,0,3.083,0c1.078,0,2.605,0.287,2.605,1.931c0,0,0.377-0.677,0.377-0.974    c0-0.183,0-2.532,0-2.738c0-0.431-0.251-1.595-2.44-1.595c-1.47,0-3.625,0-3.625,0l-0.637,1.195c0,0-0.068,0.366,0.101,0.8    C77.066,29.284,77.435,30.233,77.435,30.233z" fill="#FFFFFF"/><path d="M77.435,29.694h3.58c0,0,2.108-0.068,2.108,1.322c0,0,0.377-0.068,0.377-0.365c0-0.183,0-2.532,0-2.736    c0-0.433-0.251-1.597-2.44-1.597c-1.47,0-3.625,0-3.625,0l-0.637,1.734L77.435,29.694z" fill="#F37721"/><polygon fill="#F37721" points="64.391,28.615 62.994,28.615 62.994,27.688 61.37,27.688 61.37,31.032 62.994,31.032     62.994,30.105 64.391,30.105   "/><path d="M5.014,36.367H3.5v-3.776h1.095c0.072-0.083,0.151-0.193,0.237-0.327c0.085-0.133,0.17-0.299,0.255-0.492    c0.195-0.389,0.368-0.934,0.52-1.633c0.153-0.699,0.229-1.614,0.229-2.745v-2.022h5.656v7.22h1.247v3.776h-1.515v-2.48H5.014    V36.367z M9.977,26.672H7.351c0.011,1.547-0.056,2.75-0.201,3.608c-0.146,0.858-0.408,1.631-0.785,2.311h3.612V26.672z" fill="#231F20"/><path d="M21.538,32.397c-0.183,0.218-0.372,0.413-0.567,0.584c-0.193,0.17-0.389,0.316-0.584,0.438    c-0.511,0.303-0.994,0.488-1.451,0.554c-0.457,0.068-0.769,0.102-0.94,0.102c-1.327,0-2.367-0.436-3.122-1.307    c-0.755-0.87-1.132-1.896-1.132-3.076c0-1.266,0.368-2.339,1.105-3.216c0.736-0.875,1.7-1.315,2.894-1.315    c1.241,0,2.157,0.412,2.747,1.231c0.589,0.821,0.928,1.723,1.013,2.707c0.012,0.1,0.021,0.202,0.028,0.311    c0.005,0.109,0.009,0.213,0.009,0.311v0.091v0.109h-6.062v0.037v0.036v0.037v0.036c0,0.673,0.2,1.292,0.602,1.861    c0.402,0.568,1.041,0.851,1.917,0.851c0.304,0,0.578-0.031,0.822-0.1c0.243-0.065,0.481-0.167,0.711-0.302    c0.171-0.107,0.34-0.236,0.511-0.382c0.171-0.146,0.354-0.315,0.547-0.511L21.538,32.397z M19.823,28.607    c-0.012-0.122-0.033-0.256-0.063-0.408c-0.031-0.151-0.076-0.312-0.137-0.48c-0.133-0.304-0.35-0.584-0.647-0.845    c-0.298-0.26-0.726-0.391-1.286-0.391c-0.621,0-1.083,0.152-1.386,0.454c-0.305,0.303-0.511,0.629-0.621,0.982    c-0.036,0.12-0.063,0.239-0.082,0.353c-0.018,0.116-0.033,0.227-0.045,0.336H19.823z" fill="#231F20"/><polygon fill="#231F20" points="24.913,33.887 23.399,33.887 23.399,25.371 24.913,25.371 24.913,28.627 28.875,28.627     28.875,25.371 30.389,25.371 30.389,33.887 28.875,33.887 28.875,29.94 24.913,29.94   "/><path d="M34.417,25.371v2.576h1.784c1.371,0,2.283,0.275,2.738,0.828s0.682,1.224,0.682,2.014    c0,0.887-0.224,1.626-0.673,2.214c-0.449,0.589-1.444,0.884-2.986,0.884h-3.058v-8.516H34.417z M36.09,32.573    c0.715,0,1.188-0.151,1.417-0.455c0.23-0.303,0.358-0.637,0.382-1.001v-0.082v-0.101c0-0.461-0.113-0.854-0.337-1.183    c-0.225-0.328-0.711-0.492-1.463-0.492h-1.673v3.313H36.09z" fill="#231F20"/><polygon fill="#231F20" points="42.939,33.887 41.425,33.887 41.425,25.371 46.881,25.371 46.881,26.672 42.939,26.672   "/><polygon fill="#231F20" points="53.909,26.719 53.909,25.371 55.423,25.371 55.423,33.887 53.909,33.887 53.909,28.615     49.946,32.628 49.946,33.887 48.433,33.887 48.433,25.371 49.946,25.371 49.946,30.732   "/><rect fill="#F37721" height="6.439" width="0.859" x="82.264" y="26.129"/><circle cx="79.145" cy="27.924" fill="#FFFFFF" r="0.795"/><g><g><g><path d="M29.963,21.042c-0.292,0-0.401-0.282-0.401-0.282l-1.423-3.211l1.206-2.357       c0,0,0.108-0.278,0.401-0.278c0.159,0,0.209,0,0.228,0v-0.558H28.03v0.558c0,0,0.057,0,0.275,0       c0.295,0,0.189,0.278,0.189,0.278l-0.742,1.487l-0.66-1.487c0,0-0.104-0.278,0.188-0.278c0.216,0,0.248,0,0.248,0v-0.558       h-2.239v0.558c0.016,0,0.069,0,0.225,0c0.297,0,0.404,0.278,0.404,0.278l1.213,2.744l-1.402,2.825c0,0-0.106,0.282-0.402,0.282       c-0.214,0-0.185,0-0.185,0v0.555h1.856v-0.555c0,0-0.021,0-0.316,0c-0.294,0-0.186-0.282-0.186-0.282l1.012-1.976l0.875,1.976       c0,0,0.111,0.282-0.185,0.282c-0.294,0-0.289,0-0.289,0v0.555h2.24v-0.555C30.149,21.042,30.179,21.042,29.963,21.042" fill="#231F20"/><path d="M10.081,11.012c0.295,0,0.474,0,0.474,0v-0.558c0,0-1.954,0-2.328,0c-0.373,0-3.152-0.075-3.152,2.675       c0,0.279,0-0.084,0,0.197c0,1.431,1.007,2.416,1.701,2.595c-0.384,0.098-0.663,0.351-0.81,0.579       c-0.325,0.511-0.52,1.136-0.646,2.124c-0.133,1.036-0.127,2.023-0.507,2.346c-0.155,0.131-0.378,0.18-0.61,0.155v0.476       c0.231,0.137,0.554,0.204,0.894,0.14c1.007-0.194,1.372-1.08,1.493-1.817c0.218-1.354,0.155-3.568,1.426-4.063l0.448-0.001       v4.899c0,0,0,0.282-0.294,0.282c-0.295,0-0.472,0-0.472,0v0.555h2.857v-0.555c0,0-0.178,0-0.474,0       c-0.293,0-0.293-0.282-0.293-0.282v-9.47C9.787,11.29,9.787,11.012,10.081,11.012L10.081,11.012z M8.462,15.303H8.168       c-0.454,0-1.825,0-1.825-2.004l0.027-0.809c0-1.478,1.323-1.478,1.849-1.478h0.243V15.303" fill="#EE3524"/><path d="M24.993,18.338h0.378c0.006-0.133,0.007-0.263,0.007-0.399c0-2.114-0.629-3.742-2.142-3.742       c-1.514,0-2.144,1.628-2.144,3.742c0,2.113,0.63,3.769,2.144,3.769c1.155,0,1.756-0.943,2.02-2.353h-1.113       c-0.089,1.07-0.281,1.739-0.907,1.739c-0.807,0-0.931-1.149-0.953-2.756h1.907H24.993L24.993,18.338z M23.237,14.813       c0.807,0,0.93,1.12,0.954,2.728h-1.907C22.306,15.932,22.43,14.813,23.237,14.813" fill="#231F20"/><path d="M20.695,21.042c-0.294,0-0.294-0.282-0.294-0.282V10.455h-1.735v0.558h0.587v3.558       c-0.231-0.218-0.587-0.345-0.962-0.345c-1.515,0-2.232,1.629-2.232,3.743c0,2.112,0.571,3.741,2.083,3.741       c0.435,0,0.822-0.19,1.111-0.671l0.317,0.56h0.831h0.59v-0.555C20.991,21.042,20.991,21.042,20.695,21.042L20.695,21.042z        M18.202,21.095c-0.874,0-0.9-1.324-0.9-3.127c0-1.805,0.027-3.128,0.9-3.128c1.189,0,0.988,1.323,0.988,3.128       C19.19,19.623,19.391,21.095,18.202,21.095" fill="#231F20"/><path d="M15.63,21.042c-0.293,0-0.293-0.282-0.293-0.282s0-4.721,0-5.066c0-0.5-0.21-1.505-1.532-1.505       c-0.781,0-1.121,0.542-1.238,0.686l-0.341-0.604h-1.393v0.557h0.586v5.932c0,0,0,0.282-0.295,0.282c-0.292,0-0.292,0-0.292,0       v0.555h2.325v-0.555c0,0,0,0-0.296,0c-0.294,0-0.294-0.282-0.294-0.282v-4.334c0-0.514,0.055-0.759,0.083-0.854       c0.102-0.29,0.332-0.659,0.833-0.659c0.588,0,0.702,0.538,0.702,0.807c0,0.159,0,5.04,0,5.04s0,0.282-0.292,0.282       c-0.294,0-0.294,0-0.294,0v0.555h2.325v-0.555C15.924,21.042,15.924,21.042,15.63,21.042" fill="#231F20"/></g></g></g></g></g></svg>